<?xml version="1.0" encoding="UTF-8"?>
<svg id="Layer_2" data-name="Layer 2" xmlns="http://www.w3.org/2000/svg" viewBox="0 0 490.15 82.61">
  <defs>
    <style>
      .cls-1, .cls-2, .cls-3 {
        stroke-width: 0px;
      }

      .cls-2, .cls-3 {
        fill: #231f20;
      }

      .cls-3 {
        fill-rule: evenodd;
      }
    </style>
  </defs>
  <g id="Layer_1-2" data-name="Layer 1">
    <path class="cls-3" d="m99.68,56.45c-.59,1.03-1.52,1.75-2.57,2.09-.96.34-2.01.35-3,.02-.29-.1-.58-.23-.85-.39-1.09-.63-1.87-1.64-2.19-2.85-.33-1.21-.16-2.48.47-3.57.58-1,1.48-1.74,2.57-2.1.09-.03.18-.06.28-.09.41-.11.82-.16,1.23-.16.51,0,1.01.08,1.49.26.29.08.58.21.85.37,1.09.63,1.87,1.64,2.19,2.85.32,1.22.16,2.48-.47,3.57Z"/>
    <path class="cls-3" d="m84.01,37.68c-.59,1.02-1.52,1.74-2.57,2.09-.95.33-2.01.35-3,0-.29-.09-.57-.21-.85-.37-1.09-.63-1.87-1.64-2.2-2.86-.32-1.21-.15-2.48.47-3.56.58-1,1.49-1.75,2.58-2.1.09-.04.19-.07.28-.09.4-.11.82-.17,1.22-.17.51,0,1.02.09,1.5.25.29.1.58.23.85.39,2.24,1.29,3.01,4.17,1.72,6.42Z"/>
    <g>
      <path class="cls-1" d="m97.11,20.65v25.89c-.98-.19-2-.19-3,0v-25.89h3Z"/>
      <path class="cls-1" d="m95.6,61.8c.51,0,1.02-.05,1.51-.16v6.68h-3v-6.66c.49.09.99.14,1.49.14Z"/>
    </g>
    <g>
      <path class="cls-1" d="m81.44,20.65v7.12c-.98-.19-2-.19-3,0v-7.12h3Z"/>
      <path class="cls-1" d="m79.92,43.03c.51,0,1.02-.05,1.52-.15v25.44h-3v-25.43c.49.09.99.14,1.48.14Z"/>
    </g>
    <g>
      <path class="cls-2" d="m9.38,65.4H0V20.65h9.38v8.86h.43c.46-1.49,1.19-2.91,2.19-4.26,1-1.35,2.34-2.45,4-3.31,1.66-.86,3.7-1.29,6.11-1.29h2.5v9.04h-3.7c-2.47,0-4.56.29-6.28.86-1.72.57-3.03,1.38-3.92,2.41-.89,1.03-1.33,2.32-1.33,3.87v28.57Z"/>
      <path class="cls-2" d="m45.87,66.43c-4.25,0-7.92-.96-11.02-2.88-3.1-1.92-5.5-4.63-7.19-8.13-1.69-3.5-2.54-7.63-2.54-12.39s.83-8.88,2.5-12.35c1.66-3.47,4.02-6.18,7.06-8.13,3.04-1.95,6.68-2.93,10.93-2.93s8.1.99,11.06,2.97,5.18,4.66,6.67,8.05c1.49,3.39,2.24,7.14,2.24,11.27v3.53h-30.64v1.46c0,3.44,1.02,6.27,3.06,8.48,2.04,2.21,4.95,3.31,8.73,3.31,2.75,0,5.08-.6,6.97-1.81,1.89-1.21,3.47-2.84,4.73-4.91l5.59,5.42c-1.72,2.7-4.15,4.88-7.27,6.54s-6.76,2.5-10.89,2.5Zm-.09-39.5c-2.18,0-4.09.5-5.72,1.51-1.63,1-2.9,2.38-3.79,4.13-.89,1.75-1.33,3.77-1.33,6.07v.6h20.83v-.86c0-2.29-.4-4.3-1.2-6.02-.8-1.72-1.95-3.06-3.44-4s-3.27-1.42-5.34-1.42Z"/>
    </g>
    <g>
      <path class="cls-2" d="m292.05,65.86c-3.91,0-7.26-.74-10.03-2.23-2.77-1.49-5.18-3.6-7.23-6.35l3.68-2.89c1.87,2.39,3.91,4.19,6.13,5.39,2.22,1.2,4.82,1.8,7.79,1.8,3.44,0,6.1-.75,7.97-2.23,1.87-1.49,2.8-3.58,2.8-6.26,0-2.33-.72-4.2-2.15-5.6s-3.78-2.33-7.05-2.8l-3.68-.61c-2.69-.41-5.08-1.08-7.18-2.01-2.1-.93-3.72-2.26-4.86-3.98-1.14-1.72-1.71-3.93-1.71-6.61,0-4.2,1.46-7.34,4.38-9.42,2.92-2.07,6.54-3.11,10.86-3.11,2.51,0,4.7.29,6.57.88,1.87.58,3.52,1.4,4.95,2.45,1.43,1.05,2.7,2.25,3.81,3.59l-3.33,3.07c-1.17-1.46-2.71-2.77-4.64-3.94s-4.47-1.75-7.62-1.75-5.71.7-7.49,2.1c-1.78,1.4-2.67,3.36-2.67,5.87s.8,4.54,2.41,5.74c1.6,1.2,4.01,2.06,7.23,2.58l3.59.53c4.55.7,7.93,2.06,10.12,4.07,2.19,2.01,3.28,4.83,3.28,8.45,0,2.8-.64,5.2-1.93,7.18-1.29,1.99-3.11,3.5-5.47,4.55s-5.21,1.58-8.54,1.58Z"/>
      <path class="cls-2" d="m333.91,64.81h-8.93c-1.75,0-3.11-.51-4.07-1.53-.96-1.02-1.44-2.35-1.44-3.99V24.35h-7.79v-4.38h5.08c1.23,0,2.06-.26,2.5-.79.44-.53.66-1.4.66-2.63V7.44h4.55v12.52h10.16v4.38h-10.16v36.08h9.46v4.38Z"/>
      <path class="cls-2" d="m371.48,64.81v-7.09h-.35c-.82,2.1-2.25,3.98-4.29,5.65-2.04,1.66-4.99,2.5-8.85,2.5-4.73,0-8.45-1.47-11.17-4.42-2.71-2.95-4.07-7.17-4.07-12.66v-28.81h4.99v27.85c0,4.55.99,7.96,2.98,10.2,1.98,2.25,4.85,3.37,8.58,3.37,2.1,0,4.07-.36,5.91-1.09,1.84-.73,3.34-1.82,4.51-3.28,1.17-1.46,1.75-3.33,1.75-5.61v-31.44h4.99v44.84h-4.99Z"/>
      <path class="cls-2" d="m418.43,64.81v-7.18h-.26c-1.23,2.45-2.96,4.44-5.21,5.96-2.25,1.52-5.07,2.28-8.45,2.28-3.8,0-7.08-.92-9.85-2.76-2.77-1.84-4.9-4.52-6.39-8.06-1.49-3.53-2.23-7.75-2.23-12.66s.74-9.2,2.23-12.7c1.49-3.5,3.62-6.17,6.39-8.01,2.77-1.84,6.06-2.76,9.85-2.76,3.39,0,6.23.74,8.54,2.23,2.31,1.49,4.01,3.49,5.12,6h.26V0h4.99v64.81h-4.99Zm-12.79-3.42c2.33,0,4.47-.42,6.39-1.27,1.93-.85,3.47-2.04,4.64-3.59,1.17-1.55,1.75-3.34,1.75-5.39v-17.78c0-1.98-.58-3.72-1.75-5.21-1.17-1.49-2.71-2.66-4.64-3.5-1.93-.85-4.06-1.27-6.39-1.27-4.44,0-7.93,1.43-10.47,4.29-2.54,2.86-3.81,6.71-3.81,11.56v6.31c0,4.79,1.27,8.63,3.81,11.52s6.03,4.33,10.47,4.33Z"/>
      <path class="cls-2" d="m438.92,7.18c-1.17,0-2.03-.29-2.58-.88-.56-.58-.83-1.34-.83-2.28v-.88c0-.93.28-1.69.83-2.28.55-.58,1.42-.88,2.58-.88s2.1.29,2.63.88c.53.58.79,1.34.79,2.28v.88c0,.93-.26,1.69-.79,2.28-.53.58-1.4.88-2.63.88Zm-2.45,57.63V19.97h4.99v44.84h-4.99Z"/>
      <path class="cls-2" d="m470.54,65.86c-3.97,0-7.42-.93-10.33-2.8-2.92-1.87-5.2-4.55-6.83-8.06-1.64-3.5-2.45-7.71-2.45-12.61s.82-9.11,2.45-12.61c1.63-3.5,3.91-6.19,6.83-8.06,2.92-1.87,6.36-2.8,10.33-2.8s7.43.93,10.38,2.8c2.95,1.87,5.23,4.55,6.83,8.06,1.6,3.5,2.41,7.71,2.41,12.61s-.8,9.11-2.41,12.61c-1.61,3.5-3.88,6.19-6.83,8.06-2.95,1.87-6.41,2.8-10.38,2.8Zm0-4.47c4.38,0,7.85-1.39,10.42-4.16,2.57-2.77,3.85-6.79,3.85-12.04v-5.61c0-5.25-1.29-9.27-3.85-12.04-2.57-2.77-6.04-4.16-10.42-4.16s-7.77,1.39-10.33,4.16c-2.57,2.77-3.85,6.79-3.85,12.04v5.61c0,5.25,1.28,9.27,3.85,12.04,2.57,2.77,6.01,4.16,10.33,4.16Z"/>
    </g>
    <g>
      <path class="cls-2" d="m110.68,82.61V20.65h9.38v7.4h.43c.92-2.7,2.5-4.78,4.73-6.24s4.85-2.2,7.83-2.2c3.79,0,7,.93,9.64,2.8,2.64,1.86,4.66,4.53,6.07,8,1.41,3.47,2.11,7.67,2.11,12.61s-.7,9.07-2.11,12.57c-1.41,3.5-3.43,6.18-6.07,8.05-2.64,1.86-5.85,2.8-9.64,2.8-2.98,0-5.57-.75-7.75-2.24-2.18-1.49-3.79-3.56-4.82-6.2h-.43v24.61h-9.38Zm19.54-24.1c3.27,0,5.88-1.08,7.83-3.23,1.95-2.15,2.93-4.95,2.93-8.39v-7.75c0-3.44-.98-6.22-2.93-8.35-1.95-2.12-4.56-3.18-7.83-3.18-1.89,0-3.6.32-5.12.95-1.52.63-2.74,1.52-3.66,2.67-.92,1.15-1.38,2.5-1.38,4.04v15.15c0,1.72.46,3.17,1.38,4.35.92,1.18,2.14,2.09,3.66,2.75,1.52.66,3.23.99,5.12.99Z"/>
      <path class="cls-2" d="m174.79,66.43c-4.19,0-7.82-.96-10.89-2.88-3.07-1.92-5.45-4.63-7.14-8.13-1.69-3.5-2.54-7.63-2.54-12.39s.85-8.89,2.54-12.39c1.69-3.5,4.07-6.21,7.14-8.13,3.07-1.92,6.7-2.88,10.89-2.88s7.73.96,10.8,2.88c3.07,1.92,5.45,4.63,7.14,8.13,1.69,3.5,2.54,7.63,2.54,12.39s-.85,8.89-2.54,12.39c-1.69,3.5-4.07,6.21-7.14,8.13-3.07,1.92-6.67,2.88-10.8,2.88Zm0-7.83c3.21,0,5.78-.99,7.7-2.97,1.92-1.98,2.88-4.92,2.88-8.82v-7.57c0-3.9-.96-6.84-2.88-8.82-1.92-1.98-4.49-2.97-7.7-2.97s-5.72.99-7.7,2.97-2.97,4.92-2.97,8.82v7.57c0,3.9.99,6.84,2.97,8.82s4.55,2.97,7.7,2.97Z"/>
      <path class="cls-2" d="m215.59,66.43c-4.19,0-7.73-.75-10.63-2.24-2.9-1.49-5.41-3.56-7.53-6.2l6.02-5.51c1.66,1.95,3.51,3.5,5.55,4.65,2.04,1.15,4.4,1.72,7.1,1.72s4.8-.53,6.15-1.59c1.35-1.06,2.02-2.54,2.02-4.43,0-1.43-.47-2.64-1.42-3.61-.95-.98-2.6-1.64-4.95-1.98l-4.13-.52c-2.98-.46-5.59-1.21-7.83-2.24-2.24-1.03-3.95-2.45-5.12-4.26-1.18-1.81-1.76-4.09-1.76-6.84,0-4.36,1.53-7.75,4.6-10.15,3.07-2.41,7.07-3.62,12-3.62,2.7,0,5.05.29,7.06.86,2.01.57,3.79,1.39,5.33,2.45,1.55,1.06,2.98,2.34,4.3,3.83l-5.77,5.51c-1.15-1.38-2.65-2.57-4.52-3.57-1.87-1-4-1.51-6.41-1.51s-4.42.5-5.68,1.51c-1.26,1-1.89,2.37-1.89,4.09s.56,3.01,1.68,3.87c1.12.86,2.85,1.49,5.21,1.89l4.13.52c4.93.75,8.53,2.19,10.8,4.35,2.27,2.15,3.4,5.03,3.4,8.65,0,2.87-.73,5.38-2.19,7.53-1.46,2.15-3.52,3.83-6.15,5.03-2.64,1.21-5.77,1.81-9.38,1.81Z"/>
      <path class="cls-2" d="m259.56,65.4h-8.17c-3.21,0-5.67-.87-7.36-2.62-1.69-1.75-2.54-4.14-2.54-7.19v-27.28h-6.97v-7.66h3.79c1.61,0,2.7-.34,3.27-1.03s.86-1.81.86-3.36v-7.83h8.43v12.22h9.38v7.66h-9.38v29.43h8.69v7.66Z"/>
    </g>
  </g>
</svg>